{
  "accessors": [
    {
      "bufferView": 2,
      "componentType": 5126,
      "count": 972,
      "max": [
        8.001439094543457,
        13.015110969543457,
        11.005208969116211
      ],
      "min": [
        0.0,
        0.0,
        0.0
      ],
      "type": "VEC3"
    },
    {
      "bufferView": 2,
      "byteOffset": 11664,
      "componentType": 5126,
      "count": 972,
      "max": [
        0.9998504519462585,
        0.9981039762496948,
        0.9973334670066833
      ],
      "min": [
        -0.9977436065673828,
        -0.9998636841773987,
        -0.9999706149101257
      ],
      "type": "VEC3"
    },
    {
      "bufferView": 3,
      "componentType": 5126,
      "count": 972,
      "max": [
        0.9998094439506531,
        0.9930471777915955,
        0.9980058670043945,
        1.0
      ],
      "min": [
        -0.9994644522666931,
        -0.9960697889328003,
        -0.9677214026451111,
        -1.0
      ],
      "type": "VEC4"
    },
    {
      "bufferView": 1,
      "componentType": 5126,
      "count": 972,
      "max": [
        0.978879988193512,
        0.9809150099754333
      ],
      "min": [
        0.01647699996829033,
        0.01846900023519993
      ],
      "type": "VEC2"
    },
    {
      "bufferView": 0,
      "componentType": 5125,
      "count": 3906,
      "type": "SCALAR"
    }
  ],
  "asset": {
    "extras": {
      "author": "toAflame (https://sketchfab.com/toAflame)",
      "license": "CC-BY-4.0 (http://creativecommons.org/licenses/by/4.0/)",
      "source": "https://sketchfab.com/3d-models/stump-09011ac594d64d27898d8502cb6a765f",
      "title": "Stump"
    },
    "generator": "Sketchfab-12.68.0",
    "version": "2.0"
  },
  "bufferViews": [
    {
      "buffer": 0,
      "byteLength": 15624,
      "name": "floatBufferViews",
      "target": 34963
    },
    {
      "buffer": 0,
      "byteLength": 7776,
      "byteOffset": 15624,
      "byteStride": 8,
      "name": "floatBufferViews",
      "target": 34962
    },
    {
      "buffer": 0,
      "byteLength": 23328,
      "byteOffset": 23400,
      "byteStride": 12,
      "name": "floatBufferViews",
      "target": 34962
    },
    {
      "buffer": 0,
      "byteLength": 15552,
      "byteOffset": 46728,
      "byteStride": 16,
      "name": "floatBufferViews",
      "target": 34962
    }
  ],
  "buffers": [
    {
      "byteLength": 62280,
      "uri": "scene.bin"
    }
  ],
  "images": [
    {
      "uri": "textures/material_0_baseColor.png"
    },
    {
      "uri": "textures/material_0_normal.png"
    }
  ],
  "materials": [
    {
      "alphaMode": "BLEND",
      "doubleSided": true,
      "name": "material_0",
      "normalTexture": {
        "index": 1
      },
      "pbrMetallicRoughness": {
        "baseColorTexture": {
          "index": 0
        },
        "metallicFactor": 0.0,
        "roughnessFactor": 0.6
      }
    }
  ],
  "meshes": [
    {
      "name": "Object_0",
      "primitives": [
        {
          "attributes": {
            "NORMAL": 1,
            "POSITION": 0,
            "TANGENT": 2,
            "TEXCOORD_0": 3
          },
          "indices": 4,
          "material": 0,
          "mode": 4
        }
      ]
    }
  ],
  "nodes": [
    {
      "children": [
        1
      ],
      "matrix": [
        -4.440892098500626e-16,
        -1.0,
        -2.220446049250314e-16,
        0.0,
        -2.832769343193999e-16,
        -2.2204460492503123e-16,
        1.0,
        0.0,
        -1.0,
        4.440892098500627e-16,
        -2.832769343193998e-16,
        0.0,
        -1.34788978099823,
        -1.3478897809982289,
        -5.10403299331665,
        1.0
      ],
      "name": "Sketchfab_model"
    },
    {
      "children": [
        2
      ],
      "matrix": [
        1.0,
        0.0,
        0.0,
        0.0,
        0.0,
        1.0,
        0.0,
        0.0,
        0.0,
        0.0,
        1.0,
        0.0,
        -7.618527889251709,
        -3.955535888671875,
        -3.2326760292053223,
        1.0
      ],
      "name": "766a93bfd7f242c0beed7ae418f32289.obj.cleaner.gles"
    },
    {
      "children": [
        3
      ],
      "name": "Object_2"
    },
    {
      "mesh": 0,
      "name": "Object_3"
    }
  ],
  "samplers": [
    {
      "magFilter": 9729,
      "minFilter": 9987,
      "wrapS": 10497,
      "wrapT": 10497
    }
  ],
  "scene": 0,
  "scenes": [
    {
      "name": "Sketchfab_Scene",
      "nodes": [
        0
      ]
    }
  ],
  "textures": [
    {
      "sampler": 0,
      "source": 0
    },
    {
      "sampler": 0,
      "source": 1
    }
  ]
}
